<svg width="89" height="89" viewBox="0 0 89 89" fill="none" xmlns="http://www.w3.org/2000/svg">
<path d="M81.7315 38.715C89.2965 34.1167 87.8132 29.0734 78.9132 29.37C84.9949 22.8434 82.3249 18.5417 73.8699 21.0634C78.1715 13.2017 74.3149 9.64168 66.7499 14.3884C68.8265 5.78501 64.2282 3.26334 58.1466 9.79001C57.9982 0.741673 52.8066 -0.296662 48.5049 7.71334C45.9832 -1.03833 40.6432 -1.03833 38.7149 7.86168C33.9682 0.296673 29.0732 1.78001 29.3699 10.68C22.8432 4.59834 18.5416 7.26834 21.0632 15.8717C13.2016 11.7183 9.64156 15.4267 14.3882 22.9917C5.78489 20.915 3.26322 25.5134 9.78989 31.595C1.03822 31.8917 -0.296775 36.7867 7.41656 40.94C-0.890108 43.4617 -0.593442 48.6534 8.00989 50.5817C0.444892 55.18 1.92823 60.2234 10.8282 59.9267C4.74656 66.4534 7.41656 70.7551 15.8716 68.2334C11.5699 76.0951 15.4266 79.6551 22.9916 74.9084C20.9149 83.5117 25.5132 86.0334 31.5949 79.5067C31.7432 88.5551 36.9349 89.5934 41.2366 81.5834C43.7582 90.3351 49.0982 90.3351 51.0266 81.4351C55.7732 89.0001 60.6682 87.5167 60.3716 78.6167C66.8982 84.6984 71.1999 82.0284 68.6782 73.4251C76.5399 77.5784 80.0999 73.8701 75.3532 66.3051C83.9565 68.3817 86.4782 63.7834 79.9516 57.7017C88.7032 57.4051 90.0382 52.51 82.3249 48.3567C90.6315 45.6867 90.3349 40.6434 81.7315 38.715Z" fill="#FF7516"/>
<path d="M52.7837 6.71555C47.3041 5.34872 41.5382 5.15341 35.9276 6.36461C35.494 6.45822 35.2184 6.8856 35.312 7.3192C35.4056 7.7528 35.833 8.02841 36.2666 7.93481C41.6397 6.77487 47.1746 6.96612 52.4393 8.28565C65.0295 11.4412 75.5092 20.9073 79.5007 33.2726C81.0443 38.0546 81.7001 43.1466 81.8314 48.483C81.8423 48.9265 82.2106 49.2771 82.6541 49.2662C83.0975 49.2553 83.4482 48.887 83.4373 48.4435C83.3042 43.0338 82.6407 37.8109 81.059 32.871C76.9138 19.9255 65.9607 10.0024 52.7837 6.71555Z" fill="#FF8735"/>
<path d="M31.8516 9.14562C32.2792 9.02765 32.5303 8.58537 32.4123 8.15776C32.2943 7.73015 31.8521 7.47913 31.4244 7.5971C25.5569 9.21577 17.3031 14.8089 12.2021 22.2808C12.2001 22.2837 12.1982 22.2866 12.1962 22.2896C7.71722 29.0394 4.90953 37.5218 5.69343 45.7528C5.69418 45.7606 5.69504 45.7684 5.69602 45.7762C5.88388 47.2792 6.19927 48.7793 6.51503 50.2812C7.18007 53.4445 7.84675 56.6157 7.32711 59.8371C7.25647 60.2751 7.55421 60.6873 7.99214 60.758C8.43006 60.8286 8.84234 60.5309 8.91298 60.0929C9.45617 56.7255 8.78169 53.4408 8.10707 50.1555C7.79508 48.6361 7.48306 47.1166 7.29144 45.5887C6.55417 37.8111 9.20978 29.6973 13.5318 23.1822C18.4387 15.997 26.3845 10.6538 31.8516 9.14562Z" fill="#FF8735"/>
<path d="M42.3915 10.9401C52.4754 10.3243 62.5573 14.4397 69.3281 22.324C69.6171 22.6606 69.5786 23.1677 69.2421 23.4567C68.9055 23.7457 68.3984 23.7071 68.1094 23.3706C61.6707 15.8729 52.0769 11.9565 42.4845 12.5438C42.4811 12.544 42.4777 12.5442 42.4742 12.5444C30.3436 13.1313 18.9831 21.3606 14.8045 32.8919C14.6533 33.3089 14.1927 33.5245 13.7757 33.3734C13.3586 33.2223 13.1431 32.7617 13.2942 32.3446C17.6962 20.1969 29.6254 11.56 42.3915 10.9401Z" fill="#FF8735"/>
<path d="M71.775 25.8329C71.5277 25.4647 71.0287 25.3666 70.6605 25.614C70.2922 25.8613 70.1942 26.3603 70.4415 26.7285C74.195 32.3176 75.747 38.3995 76.3605 45.6169C76.3981 46.0589 76.7869 46.3868 77.2289 46.3492C77.6709 46.3116 77.9987 45.9229 77.9611 45.4809C77.3342 38.1057 75.7337 31.7274 71.775 25.8329Z" fill="#FF8735"/>
<path d="M77.4242 48.8909C77.8669 48.8632 78.2482 49.1997 78.2759 49.6424C78.5786 54.4856 78.5814 59.9652 78.0456 64.0146C77.9874 64.4544 77.5838 64.7637 77.144 64.7055C76.7043 64.6473 76.395 64.2437 76.4531 63.8039C76.9695 59.901 76.9723 54.5376 76.6727 49.7426C76.645 49.2999 76.9815 48.9186 77.4242 48.8909Z" fill="#FF8735"/>
<path d="M13.5916 36.7821C13.6957 36.3509 13.4305 35.917 12.9993 35.8129C12.5681 35.7088 12.1342 35.9739 12.0301 36.4051C11.4406 38.8467 11.1345 41.355 11.1224 43.8656C11.1099 46.4532 11.5924 48.979 12.0751 51.5059C12.4699 53.5729 12.8649 55.6406 12.9891 57.7433C13.1523 60.5053 12.5714 63.2714 11.5674 65.9041C11.4094 66.3186 11.6172 66.7827 12.0317 66.9408C12.4462 67.0988 12.9103 66.891 13.0683 66.4765C14.1295 63.6937 14.7728 60.6962 14.5927 57.6485C14.4693 55.5602 14.0744 53.5046 13.6796 51.4497C13.1979 48.9423 12.7164 46.4361 12.7287 43.8733C12.7403 41.4878 13.0311 39.1034 13.5916 36.7821Z" fill="#FF8735"/>
<path d="M34.6668 18.9337C34.8321 19.3453 34.6324 19.813 34.2208 19.9783C25.894 23.3223 19.6411 30.8683 18.3655 39.7667C17.8326 43.4843 18.4083 47.1669 18.9839 50.8484C19.3081 52.9217 19.6322 54.9946 19.7582 57.0734C20.0315 61.5808 19.5181 66.5319 16.5846 71.0367C16.3425 71.4084 15.8449 71.5135 15.4732 71.2714C15.1015 71.0294 14.9964 70.5318 15.2385 70.1601C17.9112 66.0558 18.4171 61.497 18.1548 57.1706C18.027 55.0614 17.7049 52.9644 17.383 50.8688C16.8055 47.1088 16.2286 43.3531 16.7754 39.5388C18.1374 30.0376 24.7968 22.0318 33.6222 18.4877C34.0338 18.3224 34.5015 18.5221 34.6668 18.9337Z" fill="#FF8735"/>
<path d="M62.8633 23.5065C56.2942 17.3538 46.7733 15.2064 38.1203 17.1043C37.687 17.1994 37.4128 17.6277 37.5079 18.061C37.6029 18.4942 38.0312 18.7684 38.4645 18.6734C46.6582 16.8762 55.6233 18.9263 61.7651 24.6789C66.9419 29.5275 69.948 36.5826 70.7349 44.28C70.78 44.7213 71.1743 45.0425 71.6156 44.9974C72.0569 44.9523 72.3781 44.558 72.333 44.1167C71.5159 36.1239 68.3829 28.6762 62.8633 23.5065Z" fill="#FF8735"/>
<path d="M72.1649 47.9418C72.6062 47.8965 73.0006 48.2174 73.0459 48.6587C73.8087 56.0857 73.48 64.1076 72.3284 71.8678C72.2633 72.3066 71.8548 72.6095 71.416 72.5444C70.9773 72.4793 70.6743 72.0708 70.7395 71.632C71.875 63.9796 72.1948 56.0941 71.448 48.8228C71.4027 48.3815 71.7236 47.9871 72.1649 47.9418Z" fill="#FF8735"/>
<path d="M44.1629 21.8857C31.8551 21.8857 21.8549 31.7049 21.8549 43.8449C21.8549 45.1417 21.9699 46.4123 22.1893 47.6479C22.2669 48.0846 22.6838 48.3758 23.1205 48.2983C23.5573 48.2207 23.8485 47.8038 23.7709 47.367C23.5678 46.2231 23.4612 45.0465 23.4612 43.8449C23.4612 32.6168 32.7174 23.4921 44.1629 23.4921C49.3351 23.4921 54.0608 25.3563 57.688 28.4367C58.0261 28.7238 58.533 28.6825 58.8201 28.3444C59.1073 28.0062 59.0659 27.4994 58.7278 27.2122C54.8192 23.8928 49.7275 21.8857 44.1629 21.8857Z" fill="#FF8735"/>
<path d="M60.5274 30.2069C60.8476 29.8999 61.356 29.9105 61.663 30.2307C65.2076 33.927 66.3423 39.7365 67.093 44.6119C67.9387 50.1036 68.0678 55.4612 68.0678 57.9452C68.0678 58.3888 67.7082 58.7484 67.2646 58.7484C66.821 58.7484 66.4614 58.3888 66.4614 57.9452C66.4614 55.5014 66.3335 50.2345 65.5054 44.8564C64.8084 40.3302 63.8036 34.7838 60.5036 31.3425C60.1966 31.0223 60.2072 30.5139 60.5274 30.2069Z" fill="#FF8735"/>
<path d="M67.8639 62.545C67.8991 62.1029 67.5692 61.7158 67.127 61.6806C66.6849 61.6453 66.2978 61.9752 66.2626 62.4174C65.8681 67.3648 65.3527 72.3068 64.3069 76.872C64.2078 77.3044 64.4781 77.7352 64.9104 77.8343C65.3428 77.9333 65.7736 77.6631 65.8727 77.2307C66.9461 72.5452 67.4684 67.5057 67.8639 62.545Z" fill="#FF8735"/>
<path d="M23.4821 50.604C23.9174 50.5183 24.3397 50.8016 24.4254 51.2369C26.1236 59.8608 24.9504 67.695 20.4532 74.5574C20.2101 74.9284 19.7122 75.032 19.3412 74.7889C18.9702 74.5458 18.8665 74.0479 19.1097 73.6769C23.3411 67.2201 24.4798 59.8275 22.8493 51.5472C22.7636 51.112 23.0469 50.6897 23.4821 50.604Z" fill="#FF8735"/>
<path d="M44.1629 27.1116C36.1734 27.1116 28.3358 33.2961 27.5358 41.0686C27.1856 44.4714 27.6775 47.8232 28.1697 51.1764C28.5995 54.1044 29.0294 57.0334 28.8989 59.9982C28.6002 66.7836 26.6093 72.3847 23.1884 76.998C22.9241 77.3543 22.9988 77.8574 23.3551 78.1216C23.7114 78.3858 24.2145 78.3112 24.4787 77.9548C28.1069 73.0619 30.1921 67.1456 30.5037 60.0688C30.6336 57.1174 30.2024 54.1977 29.7715 51.2799C29.2787 47.9434 28.7862 44.6094 29.1337 41.2331C29.8365 34.405 36.8645 28.718 44.1629 28.718C47.5669 28.718 56.3742 30.5612 59.1758 39.6876C60.9315 45.4068 61.4103 53.1469 60.9851 60.6664C60.5599 68.185 59.2372 75.3761 57.4586 79.9873C57.2989 80.4012 57.505 80.8661 57.9189 81.0257C58.3327 81.1853 58.7977 80.9792 58.9573 80.5654C60.8181 75.741 62.1585 68.3679 62.5889 60.7571C63.0192 53.1473 62.5462 45.193 60.7114 39.2162C57.6016 29.0856 47.853 27.1116 44.1629 27.1116Z" fill="#FF8735"/>
<path d="M31.8025 74.5586C32.1741 74.8009 32.2788 75.2986 32.0365 75.6701C31.5384 76.4337 31.1003 77.2327 30.6621 78.0317C30.224 78.8307 29.7857 79.6299 29.2876 80.3936C29.0453 80.7652 28.5476 80.8699 28.1761 80.6276C27.8045 80.3853 27.6998 79.8876 27.9421 79.5161C28.4402 78.7525 28.8783 77.9535 29.3165 77.1545C29.7546 76.3554 30.1929 75.5563 30.691 74.7926C30.9333 74.421 31.431 74.3163 31.8025 74.5586Z" fill="#FF8735"/>
<path d="M38.6799 35.449C39.0486 35.2024 39.1476 34.7036 38.901 34.3349C38.6544 33.9662 38.1555 33.8672 37.7868 34.1138C34.6063 36.2411 32.6551 39.1664 32.6551 43.4518C32.6551 46.0035 33.1071 48.0893 33.5708 50.2286C34.2646 53.4299 34.7352 56.6243 34.6506 59.9125C34.5479 63.9053 33.7667 67.554 32.2649 71.0298C32.089 71.437 32.2765 71.9097 32.6837 72.0856C33.0909 72.2616 33.5636 72.0741 33.7395 71.6669C35.3274 67.9918 36.1488 64.1396 36.2565 59.9538C36.3443 56.5369 35.8607 53.2161 35.1411 49.8889C34.6763 47.7403 34.2614 45.8219 34.2614 43.4518C34.2614 39.78 35.8767 37.324 38.6799 35.449Z" fill="#FF8735"/>
<path d="M41.8148 32.627C45.1477 31.9475 48.7343 32.7871 51.3742 34.9238C56.0896 38.7405 56.7167 45.7007 57.2249 51.3409L57.2508 51.6282C57.9075 58.8986 57.1558 65.9604 55.6415 73.0521C55.5489 73.486 55.1221 73.7625 54.6883 73.6699C54.2545 73.5773 53.9779 73.1505 54.0706 72.7167C55.5621 65.7312 56.2891 58.8375 55.6509 51.7727C55.6298 51.5388 55.6088 51.3016 55.5875 51.0616L55.5872 51.0581C55.1358 45.9612 54.5704 39.5775 50.3635 36.1725C48.1066 34.3457 45.0111 33.6148 42.1356 34.201C41.701 34.2896 41.2768 34.0091 41.1882 33.5744C41.0996 33.1398 41.3801 32.7156 41.8148 32.627Z" fill="#FF8735"/>
<path d="M54.5063 77.0487C54.6158 76.6189 54.356 76.1817 53.9261 76.0722C53.4963 75.9628 53.0591 76.2225 52.9496 76.6524C52.464 78.5597 51.7159 80.2812 50.7672 81.8662C50.5394 82.2468 50.6633 82.74 51.0439 82.9678C51.4245 83.1956 51.9177 83.0718 52.1455 82.6912C53.1679 80.9831 53.9795 79.118 54.5063 77.0487Z" fill="#FF8735"/>
<path d="M50.5787 65.3931C51.0192 65.4452 51.3341 65.8446 51.2819 66.2851C50.5234 72.6953 48.8108 78.4124 46.0629 83.371C45.8479 83.759 45.3591 83.8992 44.9711 83.6842C44.5831 83.4692 44.4429 82.9803 44.6579 82.5923C47.2877 77.8469 48.9481 72.3374 49.6867 66.0963C49.7388 65.6558 50.1382 65.341 50.5787 65.3931Z" fill="#FF8735"/>
<path d="M50.4132 43.0305C49.8563 40.0552 47.3027 37.7793 44.2026 37.7793C40.0047 37.7793 37.0594 42.0107 38.0973 45.9476C39.8535 52.8968 40.1418 59.5943 38.9529 66.0449L38.952 66.0497C37.9203 71.8413 35.9391 77.0515 33.2367 81.4666C33.0051 81.8449 33.124 82.3394 33.5024 82.5709C33.8807 82.8025 34.3752 82.6836 34.6067 82.3052C37.4197 77.7096 39.4683 72.3094 40.5331 66.3337C41.7675 59.6342 41.4616 52.7018 39.6536 45.5498L39.6514 45.5414C38.8729 42.5965 41.0429 39.3857 44.2026 39.3857C46.4828 39.3857 48.4081 41.0631 48.8332 43.3206C50.0023 50.1018 50.6112 56.3902 50.1777 61.8045C50.1422 62.2466 50.472 62.6338 50.9142 62.6692C51.3563 62.7046 51.7435 62.3749 51.7789 61.9327C52.2283 56.3208 51.594 49.8775 50.4152 43.0418C50.4146 43.0381 50.4139 43.0343 50.4132 43.0305Z" fill="#FF8735"/>
<path d="M41.806 77.817C42.2005 78.0198 42.356 78.504 42.1533 78.8985L40.025 83.0401C39.8223 83.4347 39.3381 83.5902 38.9435 83.3874C38.549 83.1847 38.3935 82.7005 38.5963 82.3059L40.7245 78.1643C40.9272 77.7698 41.4114 77.6143 41.806 77.817Z" fill="#FF8735"/>
<path d="M44.8 43.805C44.6985 43.3732 44.2662 43.1054 43.8344 43.2068C43.4026 43.3083 43.1348 43.7406 43.2362 44.1724C45.9447 55.7021 45.5727 65.8264 42.2736 74.4508C42.1151 74.8651 42.3225 75.3295 42.7368 75.4879C43.1511 75.6464 43.6154 75.439 43.7739 75.0247C47.2139 66.0322 47.5635 55.5688 44.8 43.805Z" fill="#FF8735"/>
<path fill-rule="evenodd" clip-rule="evenodd" d="M64.7055 39.1491C65.3569 39.5561 65.5549 40.4141 65.1477 41.0653C63.9268 43.0191 62.4758 44.7964 60.8265 46.3444L64.1668 49.6847C64.7097 50.2278 64.7097 51.1083 64.1668 51.6515C63.6236 52.1944 62.7431 52.1944 62.2002 51.6515L58.6874 48.1386C56.473 49.7925 53.981 51.0699 51.2688 51.8734L52.5183 56.5365C52.7169 57.2785 52.2767 58.0408 51.5349 58.2397C50.793 58.4386 50.0305 57.9983 49.8317 57.2563L48.5583 52.5034C47.2463 52.7273 45.8916 52.8438 44.5 52.8438C43.1084 52.8438 41.7537 52.7273 40.4417 52.5034L39.1683 57.2563C38.9696 57.9983 38.2071 58.4386 37.4652 58.2397C36.7233 58.0408 36.2831 57.2785 36.4818 56.5367L37.7311 51.8734C35.019 51.0699 32.5268 49.7925 30.3126 48.1386L26.7998 51.6512C26.2568 52.1944 25.3763 52.1944 24.8332 51.6512C24.2901 51.1083 24.2901 50.2278 24.8332 49.6847L28.1736 46.3443C26.5243 44.7963 25.0733 43.0191 23.8522 41.0653C23.4451 40.4141 23.6431 39.5561 24.2944 39.1491C24.9457 38.742 25.8036 38.94 26.2107 39.5913C27.5442 41.725 29.1725 43.6119 31.0452 45.1753C31.0753 45.1983 31.1047 45.2226 31.1332 45.2484C34.7906 48.2697 39.3696 50.0625 44.5 50.0625C52.3092 50.0625 58.841 45.9084 62.7892 39.5913C63.1964 38.94 64.0544 38.742 64.7055 39.1491Z" fill="white"/>
</svg>
